<?xml version="1.0" encoding="iso-8859-1" standalone="no"?>
<!DOCTYPE svg PUBLIC "-//W3C//DTD SVG 20010904//EN" 
  "http://www.w3.org/TR/2001/REC-SVG-20010904/DTD/svg10.dtd" [ 
<!ENTITY ff "font-family:">
<!ENTITY fs "font-size:">
<!ENTITY fw "font-weight:">
<!ENTITY fst "font-style:">
<!ENTITY sw "stroke-width:">
<!ENTITY as "text-anchor:start;">
<!ENTITY am "text-anchor:middle;">
<!ENTITY ae "text-anchor:end;">
]>
<!-- Generated by ploticus (http://ploticus.sourceforge.net/)
Title: ploticus-graphic
SVG Driver by B.Traill
-->
<svg xmlns="http://www.w3.org/2000/svg" 
  viewBox="0 0 394.80 194.84"      
  xmlns:xlink="http://www.w3.org/1999/xlink"
>
<g transform="translate(-23.20,-266.60)" >                                                       

<g style="fill:#000000;stroke:#000000;&ff;Helvetica;">
<g style="&sw;0.6;&fs;8pt;&am;">
<text x="72.00" y="447.04" stroke="none">0</text>
</g><g style="&sw;0.5;&fs;8pt;&am;">
<path d="M72 437l0 -5.04" fill="none"/>
<text x="108.00" y="447.04" stroke="none">5</text>
<path d="M108 437l0 -5.04" fill="none"/>
<text x="144.00" y="447.04" stroke="none">10</text>
<path d="M144 437l0 -5.04" fill="none"/>
<text x="180.00" y="447.04" stroke="none">15</text>
<path d="M180 437l0 -5.04" fill="none"/>
<text x="216.00" y="447.04" stroke="none">20</text>
<path d="M216 437l0 -5.04" fill="none"/>
<text x="252.00" y="447.04" stroke="none">25</text>
<path d="M252 437l0 -5.04" fill="none"/>
<text x="288.00" y="447.04" stroke="none">30</text>
<path d="M288 437l0 -5.04" fill="none"/>
<text x="324.00" y="447.04" stroke="none">35</text>
<path d="M324 437l0 -5.04" fill="none"/>
<text x="360.00" y="447.04" stroke="none">40</text>
<path d="M360 437l0 -5.04" fill="none"/>
<text x="396.00" y="447.04" stroke="none">45</text>
<path d="M396 437l0 -5.04" fill="none"/>
<path d="M72 432l324 0" fill="none"/>
</g><g style="&sw;0.5;&fs;8pt;&ae;">
<text x="61.20" y="435.00" stroke="none">2000</text>
<path d="M66.96 432l5.04 0" fill="none"/>
<text x="61.20" y="399.00" stroke="none">7000</text>
<path d="M66.96 396l5.04 0" fill="none"/>
<text x="61.20" y="363.00" stroke="none">12000</text>
<path d="M66.96 360l5.04 0" fill="none"/>
<text x="61.20" y="327.00" stroke="none">17000</text>
<path d="M66.96 324l5.04 0" fill="none"/>
<text x="61.20" y="291.00" stroke="none">22000</text>
<path d="M66.96 288l5.04 0" fill="none"/>
<path d="M72 432l0 -144" fill="none"/>
</g><g style="fill:#ff0000;stroke:#ff0000;&sw;1.0;&fs;8pt;&ae;">
<path d="M79.2 411.6l7.2 -38.42l7.2 3.433l7.2 1.668l7.2 11.06l7.2 23.53l7.2 -7.903l7.2 3.764l7.2 -1.872l7.2 -12.89l7.2 2.158l7.2 -5.298l7.2 5.045l7.2 4.819l7.2 -6.501l7.2 -8.579l7.2 1.171l7.2 -17.7l7.2 -10.06l7.2 -25.12l7.2 16.87l7.2 -0.4802l7.2 6.579l7.2 -12.7l7.2 9.323l7.2 -23.93l7.2 -14.33l7.2 26.62l7.2 -4.651l7.2 9.056l7.2 0.4046l7.2 -2.203l7.2 1.352l7.2 -4.482l7.2 0.7132l7.2 -2.252l7.2 9.883l7.2 -11.41l7.2 16.16l7.2 -18.88" fill="none"/>
</g><g style="fill:#ff0000;stroke:#ff0000;&sw;0.5;&fs;8pt;&ae;">
<path d="M81.75 409.1l-5.091 -4.239e-05l-8.479e-05 5.091l5.091 0.0001272z" fill="#ffffff" stroke="#ffffff"/>
</g><g style="&sw;0.5;&fs;8pt;&ae;">
<path d="M81.75 409.1l-5.091 -4.239e-05l-8.479e-05 5.091l5.091 0.0001272l8.479e-05 -5.091l-5.091 -4.239e-05" fill="none"/>
<path d="M88.95 370.7l-5.091 -4.239e-05l-8.479e-05 5.091l5.091 0.0001272z" fill="#ffffff" stroke="#ffffff"/>
<path d="M88.95 370.7l-5.091 -4.239e-05l-8.479e-05 5.091l5.091 0.0001272l8.479e-05 -5.091l-5.091 -4.239e-05" fill="none"/>
<path d="M96.15 374.1l-5.091 -4.239e-05l-8.479e-05 5.091l5.091 0.0001272z" fill="#ffffff" stroke="#ffffff"/>
<path d="M96.15 374.1l-5.091 -4.239e-05l-8.479e-05 5.091l5.091 0.0001272l8.479e-05 -5.091l-5.091 -4.239e-05" fill="none"/>
<path d="M103.3 375.8l-5.091 -4.239e-05l-8.479e-05 5.091l5.091 0.0001272z" fill="#ffffff" stroke="#ffffff"/>
<path d="M103.3 375.8l-5.091 -4.239e-05l-8.479e-05 5.091l5.091 0.0001272l8.479e-05 -5.091l-5.091 -4.239e-05" fill="none"/>
<path d="M110.5 386.8l-5.091 -4.239e-05l-8.479e-05 5.091l5.091 0.0001272z" fill="#ffffff" stroke="#ffffff"/>
<path d="M110.5 386.8l-5.091 -4.239e-05l-8.479e-05 5.091l5.091 0.0001272l8.479e-05 -5.091l-5.091 -4.239e-05" fill="none"/>
<path d="M117.7 410.4l-5.091 -4.239e-05l-8.479e-05 5.091l5.091 0.0001272z" fill="#ffffff" stroke="#ffffff"/>
<path d="M117.7 410.4l-5.091 -4.239e-05l-8.479e-05 5.091l5.091 0.0001272l8.479e-05 -5.091l-5.091 -4.239e-05" fill="none"/>
<path d="M124.9 402.5l-5.091 -4.239e-05l-8.479e-05 5.091l5.091 0.0001272z" fill="#ffffff" stroke="#ffffff"/>
<path d="M124.9 402.5l-5.091 -4.239e-05l-8.479e-05 5.091l5.091 0.0001272l8.479e-05 -5.091l-5.091 -4.239e-05" fill="none"/>
<path d="M132.1 406.2l-5.091 -4.239e-05l-8.479e-05 5.091l5.091 0.0001272z" fill="#ffffff" stroke="#ffffff"/>
<path d="M132.1 406.2l-5.091 -4.239e-05l-8.479e-05 5.091l5.091 0.0001272l8.479e-05 -5.091l-5.091 -4.239e-05" fill="none"/>
<path d="M139.3 404.4l-5.091 -4.239e-05l-8.479e-05 5.091l5.091 0.0001272z" fill="#ffffff" stroke="#ffffff"/>
<path d="M139.3 404.4l-5.091 -4.239e-05l-8.479e-05 5.091l5.091 0.0001272l8.479e-05 -5.091l-5.091 -4.239e-05" fill="none"/>
<path d="M146.5 391.5l-5.091 -4.239e-05l-8.479e-05 5.091l5.091 0.0001272z" fill="#ffffff" stroke="#ffffff"/>
<path d="M146.5 391.5l-5.091 -4.239e-05l-8.479e-05 5.091l5.091 0.0001272l8.479e-05 -5.091l-5.091 -4.239e-05" fill="none"/>
<path d="M153.7 393.6l-5.091 -4.239e-05l-8.479e-05 5.091l5.091 0.0001272z" fill="#ffffff" stroke="#ffffff"/>
<path d="M153.7 393.6l-5.091 -4.239e-05l-8.479e-05 5.091l5.091 0.0001272l8.479e-05 -5.091l-5.091 -4.239e-05" fill="none"/>
<path d="M160.9 388.3l-5.091 -4.239e-05l-8.479e-05 5.091l5.091 0.0001272z" fill="#ffffff" stroke="#ffffff"/>
<path d="M160.9 388.3l-5.091 -4.239e-05l-8.479e-05 5.091l5.091 0.0001272l8.479e-05 -5.091l-5.091 -4.239e-05" fill="none"/>
<path d="M168.1 393.4l-5.091 -4.239e-05l-8.479e-05 5.091l5.091 0.0001272z" fill="#ffffff" stroke="#ffffff"/>
<path d="M168.1 393.4l-5.091 -4.239e-05l-8.479e-05 5.091l5.091 0.0001272l8.479e-05 -5.091l-5.091 -4.239e-05" fill="none"/>
<path d="M175.3 398.2l-5.091 -4.239e-05l-8.479e-05 5.091l5.091 0.0001272z" fill="#ffffff" stroke="#ffffff"/>
<path d="M175.3 398.2l-5.091 -4.239e-05l-8.479e-05 5.091l5.091 0.0001272l8.479e-05 -5.091l-5.091 -4.239e-05" fill="none"/>
<path d="M182.5 391.7l-5.091 -4.239e-05l-8.479e-05 5.091l5.091 0.0001272z" fill="#ffffff" stroke="#ffffff"/>
<path d="M182.5 391.7l-5.091 -4.239e-05l-8.479e-05 5.091l5.091 0.0001272l8.479e-05 -5.091l-5.091 -4.239e-05" fill="none"/>
<path d="M189.7 383.1l-5.091 -4.239e-05l-8.479e-05 5.091l5.091 0.0001272z" fill="#ffffff" stroke="#ffffff"/>
<path d="M189.7 383.1l-5.091 -4.239e-05l-8.479e-05 5.091l5.091 0.0001272l8.479e-05 -5.091l-5.091 -4.239e-05" fill="none"/>
<path d="M196.9 384.3l-5.091 -4.239e-05l-8.479e-05 5.091l5.091 0.0001272z" fill="#ffffff" stroke="#ffffff"/>
<path d="M196.9 384.3l-5.091 -4.239e-05l-8.479e-05 5.091l5.091 0.0001272l8.479e-05 -5.091l-5.091 -4.239e-05" fill="none"/>
<path d="M204.1 366.6l-5.091 -4.239e-05l-8.479e-05 5.091l5.091 0.0001272z" fill="#ffffff" stroke="#ffffff"/>
<path d="M204.1 366.6l-5.091 -4.239e-05l-8.479e-05 5.091l5.091 0.0001272l8.479e-05 -5.091l-5.091 -4.239e-05" fill="none"/>
<path d="M211.3 356.5l-5.091 -4.239e-05l-8.479e-05 5.091l5.091 0.0001272z" fill="#ffffff" stroke="#ffffff"/>
<path d="M211.3 356.5l-5.091 -4.239e-05l-8.479e-05 5.091l5.091 0.0001272l8.479e-05 -5.091l-5.091 -4.239e-05" fill="none"/>
<path d="M218.5 331.4l-5.091 -4.239e-05l-8.479e-05 5.091l5.091 0.0001272z" fill="#ffffff" stroke="#ffffff"/>
<path d="M218.5 331.4l-5.091 -4.239e-05l-8.479e-05 5.091l5.091 0.0001272l8.479e-05 -5.091l-5.091 -4.239e-05" fill="none"/>
<path d="M225.7 348.3l-5.091 -4.239e-05l-8.479e-05 5.091l5.091 0.0001272z" fill="#ffffff" stroke="#ffffff"/>
<path d="M225.7 348.3l-5.091 -4.239e-05l-8.479e-05 5.091l5.091 0.0001272l8.479e-05 -5.091l-5.091 -4.239e-05" fill="none"/>
<path d="M232.9 347.8l-5.091 -4.239e-05l-8.479e-05 5.091l5.091 0.0001272z" fill="#ffffff" stroke="#ffffff"/>
<path d="M232.9 347.8l-5.091 -4.239e-05l-8.479e-05 5.091l5.091 0.0001272l8.479e-05 -5.091l-5.091 -4.239e-05" fill="none"/>
<path d="M240.1 354.4l-5.091 -4.239e-05l-8.479e-05 5.091l5.091 0.0001272z" fill="#ffffff" stroke="#ffffff"/>
<path d="M240.1 354.4l-5.091 -4.239e-05l-8.479e-05 5.091l5.091 0.0001272l8.479e-05 -5.091l-5.091 -4.239e-05" fill="none"/>
<path d="M247.3 341.7l-5.091 -4.239e-05l-8.479e-05 5.091l5.091 0.0001272z" fill="#ffffff" stroke="#ffffff"/>
<path d="M247.3 341.7l-5.091 -4.239e-05l-8.479e-05 5.091l5.091 0.0001272l8.479e-05 -5.091l-5.091 -4.239e-05" fill="none"/>
<path d="M254.5 351l-5.091 -4.239e-05l-8.479e-05 5.091l5.091 0.0001272z" fill="#ffffff" stroke="#ffffff"/>
<path d="M254.5 351l-5.091 -4.239e-05l-8.479e-05 5.091l5.091 0.0001272l8.479e-05 -5.091l-5.091 -4.239e-05" fill="none"/>
<path d="M261.7 327.1l-5.091 -4.239e-05l-8.479e-05 5.091l5.091 0.0001272z" fill="#ffffff" stroke="#ffffff"/>
<path d="M261.7 327.1l-5.091 -4.239e-05l-8.479e-05 5.091l5.091 0.0001272l8.479e-05 -5.091l-5.091 -4.239e-05" fill="none"/>
<path d="M268.9 312.7l-5.091 -4.239e-05l-8.479e-05 5.091l5.091 0.0001272z" fill="#ffffff" stroke="#ffffff"/>
<path d="M268.9 312.7l-5.091 -4.239e-05l-8.479e-05 5.091l5.091 0.0001272l8.479e-05 -5.091l-5.091 -4.239e-05" fill="none"/>
<path d="M276.1 339.3l-5.091 -4.239e-05l-8.479e-05 5.091l5.091 0.0001272z" fill="#ffffff" stroke="#ffffff"/>
<path d="M276.1 339.3l-5.091 -4.239e-05l-8.479e-05 5.091l5.091 0.0001272l8.479e-05 -5.091l-5.091 -4.239e-05" fill="none"/>
<path d="M283.3 334.7l-5.091 -4.239e-05l-8.479e-05 5.091l5.091 0.0001272z" fill="#ffffff" stroke="#ffffff"/>
<path d="M283.3 334.7l-5.091 -4.239e-05l-8.479e-05 5.091l5.091 0.0001272l8.479e-05 -5.091l-5.091 -4.239e-05" fill="none"/>
<path d="M290.5 343.7l-5.091 -4.239e-05l-8.479e-05 5.091l5.091 0.0001272z" fill="#ffffff" stroke="#ffffff"/>
<path d="M290.5 343.7l-5.091 -4.239e-05l-8.479e-05 5.091l5.091 0.0001272l8.479e-05 -5.091l-5.091 -4.239e-05" fill="none"/>
<path d="M297.7 344.2l-5.091 -4.239e-05l-8.479e-05 5.091l5.091 0.0001272z" fill="#ffffff" stroke="#ffffff"/>
<path d="M297.7 344.2l-5.091 -4.239e-05l-8.479e-05 5.091l5.091 0.0001272l8.479e-05 -5.091l-5.091 -4.239e-05" fill="none"/>
<path d="M304.9 342l-5.091 -4.239e-05l-8.479e-05 5.091l5.091 0.0001272z" fill="#ffffff" stroke="#ffffff"/>
<path d="M304.9 342l-5.091 -4.239e-05l-8.479e-05 5.091l5.091 0.0001272l8.479e-05 -5.091l-5.091 -4.239e-05" fill="none"/>
<path d="M312.1 343.3l-5.091 -4.239e-05l-8.479e-05 5.091l5.091 0.0001272z" fill="#ffffff" stroke="#ffffff"/>
<path d="M312.1 343.3l-5.091 -4.239e-05l-8.479e-05 5.091l5.091 0.0001272l8.479e-05 -5.091l-5.091 -4.239e-05" fill="none"/>
<path d="M319.3 338.8l-5.091 -4.239e-05l-8.479e-05 5.091l5.091 0.0001272z" fill="#ffffff" stroke="#ffffff"/>
<path d="M319.3 338.8l-5.091 -4.239e-05l-8.479e-05 5.091l5.091 0.0001272l8.479e-05 -5.091l-5.091 -4.239e-05" fill="none"/>
<path d="M326.5 339.5l-5.091 -4.239e-05l-8.479e-05 5.091l5.091 0.0001272z" fill="#ffffff" stroke="#ffffff"/>
<path d="M326.5 339.5l-5.091 -4.239e-05l-8.479e-05 5.091l5.091 0.0001272l8.479e-05 -5.091l-5.091 -4.239e-05" fill="none"/>
<path d="M333.7 337.3l-5.091 -4.239e-05l-8.479e-05 5.091l5.091 0.0001272z" fill="#ffffff" stroke="#ffffff"/>
<path d="M333.7 337.3l-5.091 -4.239e-05l-8.479e-05 5.091l5.091 0.0001272l8.479e-05 -5.091l-5.091 -4.239e-05" fill="none"/>
<path d="M340.9 347.2l-5.091 -4.239e-05l-8.479e-05 5.091l5.091 0.0001272z" fill="#ffffff" stroke="#ffffff"/>
<path d="M340.9 347.2l-5.091 -4.239e-05l-8.479e-05 5.091l5.091 0.0001272l8.479e-05 -5.091l-5.091 -4.239e-05" fill="none"/>
<path d="M348.1 335.8l-5.091 -4.239e-05l-8.479e-05 5.091l5.091 0.0001272z" fill="#ffffff" stroke="#ffffff"/>
<path d="M348.1 335.8l-5.091 -4.239e-05l-8.479e-05 5.091l5.091 0.0001272l8.479e-05 -5.091l-5.091 -4.239e-05" fill="none"/>
<path d="M355.3 351.9l-5.091 -4.239e-05l-8.479e-05 5.091l5.091 0.0001272z" fill="#ffffff" stroke="#ffffff"/>
<path d="M355.3 351.9l-5.091 -4.239e-05l-8.479e-05 5.091l5.091 0.0001272l8.479e-05 -5.091l-5.091 -4.239e-05" fill="none"/>
<path d="M362.5 333l-5.091 -4.239e-05l-8.479e-05 5.091l5.091 0.0001272z" fill="#ffffff" stroke="#ffffff"/>
<path d="M362.5 333l-5.091 -4.239e-05l-8.479e-05 5.091l5.091 0.0001272l8.479e-05 -5.091l-5.091 -4.239e-05" fill="none"/>
</g></g>
</g>
</svg>
