<?xml version="1.0" encoding="iso-8859-1" standalone="no"?>
<!DOCTYPE svg PUBLIC "-//W3C//DTD SVG 20010904//EN" 
  "http://www.w3.org/TR/2001/REC-SVG-20010904/DTD/svg10.dtd" [ 
<!ENTITY ff "font-family:">
<!ENTITY fs "font-size:">
<!ENTITY fw "font-weight:">
<!ENTITY fst "font-style:">
<!ENTITY sw "stroke-width:">
<!ENTITY as "text-anchor:start;">
<!ENTITY am "text-anchor:middle;">
<!ENTITY ae "text-anchor:end;">
]>
<!-- Generated by ploticus (http://ploticus.sourceforge.net/)
Title: ploticus-graphic
SVG Driver by B.Traill
-->
<svg xmlns="http://www.w3.org/2000/svg" 
  viewBox="0 0 394.80 194.84"      
  xmlns:xlink="http://www.w3.org/1999/xlink"
>
<g transform="translate(-23.20,-266.60)" >                                                       

<g style="fill:#000000;stroke:#000000;&ff;Helvetica;">
<g style="&sw;0.6;&fs;8pt;&am;">
<text x="72.00" y="447.04" stroke="none">0</text>
</g><g style="&sw;0.5;&fs;8pt;&am;">
<path d="M72 437l0 -5.04" fill="none"/>
<text x="108.00" y="447.04" stroke="none">5</text>
<path d="M108 437l0 -5.04" fill="none"/>
<text x="144.00" y="447.04" stroke="none">10</text>
<path d="M144 437l0 -5.04" fill="none"/>
<text x="180.00" y="447.04" stroke="none">15</text>
<path d="M180 437l0 -5.04" fill="none"/>
<text x="216.00" y="447.04" stroke="none">20</text>
<path d="M216 437l0 -5.04" fill="none"/>
<text x="252.00" y="447.04" stroke="none">25</text>
<path d="M252 437l0 -5.04" fill="none"/>
<text x="288.00" y="447.04" stroke="none">30</text>
<path d="M288 437l0 -5.04" fill="none"/>
<text x="324.00" y="447.04" stroke="none">35</text>
<path d="M324 437l0 -5.04" fill="none"/>
<text x="360.00" y="447.04" stroke="none">40</text>
<path d="M360 437l0 -5.04" fill="none"/>
<text x="396.00" y="447.04" stroke="none">45</text>
<path d="M396 437l0 -5.04" fill="none"/>
<path d="M72 432l324 0" fill="none"/>
</g><g style="&sw;0.5;&fs;8pt;&ae;">
<text x="61.20" y="435.00" stroke="none">1000</text>
<path d="M66.96 432l5.04 0" fill="none"/>
<text x="61.20" y="419.00" stroke="none">2000</text>
<path d="M66.96 416l5.04 0" fill="none"/>
<text x="61.20" y="403.00" stroke="none">3000</text>
<path d="M66.96 400l5.04 0" fill="none"/>
<text x="61.20" y="387.00" stroke="none">4000</text>
<path d="M66.96 384l5.04 0" fill="none"/>
<text x="61.20" y="371.00" stroke="none">5000</text>
<path d="M66.96 368l5.04 0" fill="none"/>
<text x="61.20" y="355.00" stroke="none">6000</text>
<path d="M66.96 352l5.04 0" fill="none"/>
<text x="61.20" y="339.00" stroke="none">7000</text>
<path d="M66.96 336l5.04 0" fill="none"/>
<text x="61.20" y="323.00" stroke="none">8000</text>
<path d="M66.96 320l5.04 0" fill="none"/>
<text x="61.20" y="307.00" stroke="none">9000</text>
<path d="M66.96 304l5.04 0" fill="none"/>
<text x="61.20" y="291.00" stroke="none">10000</text>
<path d="M66.96 288l5.04 0" fill="none"/>
<path d="M72 432l0 -144" fill="none"/>
</g><g style="fill:#ff0000;stroke:#ff0000;&sw;1.0;&fs;8pt;&ae;">
<path d="M79.2 387.2l7.2 12.15l7.2 0.5653l7.2 4.163l7.2 5.149l7.2 -1.815l7.2 7.124l7.2 -0.06083l7.2 -6.9l7.2 -11.04l7.2 -5.522l7.2 -11.35l7.2 -7.325l7.2 10.91l7.2 -8.681l7.2 3.978l7.2 -1.666l7.2 -31.46l7.2 24.36l7.2 -32.12l7.2 -11.62l7.2 33.07l7.2 -35.19l7.2 2.489l7.2 21.38l7.2 -31.38l7.2 -4.691l7.2 9.493l7.2 -16.56l7.2 11.75l7.2 1.443l7.2 -5.902l7.2 9.547l7.2 -8.27l7.2 7.978l7.2 -14.8l7.2 1.394l7.2 4.624l7.2 -0.3053l7.2 -5.587" fill="none"/>
</g><g style="fill:#ff0000;stroke:#ff0000;&sw;0.5;&fs;8pt;&ae;">
<path d="M81.75 384.6l-5.091 -4.239e-05l-8.479e-05 5.091l5.091 0.0001272z" fill="#ffffff" stroke="#ffffff"/>
</g><g style="&sw;0.5;&fs;8pt;&ae;">
<path d="M81.75 384.6l-5.091 -4.239e-05l-8.479e-05 5.091l5.091 0.0001272l8.479e-05 -5.091l-5.091 -4.239e-05" fill="none"/>
<path d="M88.95 396.8l-5.091 -4.239e-05l-8.479e-05 5.091l5.091 0.0001272z" fill="#ffffff" stroke="#ffffff"/>
<path d="M88.95 396.8l-5.091 -4.239e-05l-8.479e-05 5.091l5.091 0.0001272l8.479e-05 -5.091l-5.091 -4.239e-05" fill="none"/>
<path d="M96.15 397.3l-5.091 -4.239e-05l-8.479e-05 5.091l5.091 0.0001272z" fill="#ffffff" stroke="#ffffff"/>
<path d="M96.15 397.3l-5.091 -4.239e-05l-8.479e-05 5.091l5.091 0.0001272l8.479e-05 -5.091l-5.091 -4.239e-05" fill="none"/>
<path d="M103.3 401.5l-5.091 -4.239e-05l-8.479e-05 5.091l5.091 0.0001272z" fill="#ffffff" stroke="#ffffff"/>
<path d="M103.3 401.5l-5.091 -4.239e-05l-8.479e-05 5.091l5.091 0.0001272l8.479e-05 -5.091l-5.091 -4.239e-05" fill="none"/>
<path d="M110.5 406.6l-5.091 -4.239e-05l-8.479e-05 5.091l5.091 0.0001272z" fill="#ffffff" stroke="#ffffff"/>
<path d="M110.5 406.6l-5.091 -4.239e-05l-8.479e-05 5.091l5.091 0.0001272l8.479e-05 -5.091l-5.091 -4.239e-05" fill="none"/>
<path d="M117.7 404.8l-5.091 -4.239e-05l-8.479e-05 5.091l5.091 0.0001272z" fill="#ffffff" stroke="#ffffff"/>
<path d="M117.7 404.8l-5.091 -4.239e-05l-8.479e-05 5.091l5.091 0.0001272l8.479e-05 -5.091l-5.091 -4.239e-05" fill="none"/>
<path d="M124.9 411.9l-5.091 -4.239e-05l-8.479e-05 5.091l5.091 0.0001272z" fill="#ffffff" stroke="#ffffff"/>
<path d="M124.9 411.9l-5.091 -4.239e-05l-8.479e-05 5.091l5.091 0.0001272l8.479e-05 -5.091l-5.091 -4.239e-05" fill="none"/>
<path d="M132.1 411.9l-5.091 -4.239e-05l-8.479e-05 5.091l5.091 0.0001272z" fill="#ffffff" stroke="#ffffff"/>
<path d="M132.1 411.9l-5.091 -4.239e-05l-8.479e-05 5.091l5.091 0.0001272l8.479e-05 -5.091l-5.091 -4.239e-05" fill="none"/>
<path d="M139.3 405l-5.091 -4.239e-05l-8.479e-05 5.091l5.091 0.0001272z" fill="#ffffff" stroke="#ffffff"/>
<path d="M139.3 405l-5.091 -4.239e-05l-8.479e-05 5.091l5.091 0.0001272l8.479e-05 -5.091l-5.091 -4.239e-05" fill="none"/>
<path d="M146.5 393.9l-5.091 -4.239e-05l-8.479e-05 5.091l5.091 0.0001272z" fill="#ffffff" stroke="#ffffff"/>
<path d="M146.5 393.9l-5.091 -4.239e-05l-8.479e-05 5.091l5.091 0.0001272l8.479e-05 -5.091l-5.091 -4.239e-05" fill="none"/>
<path d="M153.7 388.4l-5.091 -4.239e-05l-8.479e-05 5.091l5.091 0.0001272z" fill="#ffffff" stroke="#ffffff"/>
<path d="M153.7 388.4l-5.091 -4.239e-05l-8.479e-05 5.091l5.091 0.0001272l8.479e-05 -5.091l-5.091 -4.239e-05" fill="none"/>
<path d="M160.9 377.1l-5.091 -4.239e-05l-8.479e-05 5.091l5.091 0.0001272z" fill="#ffffff" stroke="#ffffff"/>
<path d="M160.9 377.1l-5.091 -4.239e-05l-8.479e-05 5.091l5.091 0.0001272l8.479e-05 -5.091l-5.091 -4.239e-05" fill="none"/>
<path d="M168.1 369.7l-5.091 -4.239e-05l-8.479e-05 5.091l5.091 0.0001272z" fill="#ffffff" stroke="#ffffff"/>
<path d="M168.1 369.7l-5.091 -4.239e-05l-8.479e-05 5.091l5.091 0.0001272l8.479e-05 -5.091l-5.091 -4.239e-05" fill="none"/>
<path d="M175.3 380.7l-5.091 -4.239e-05l-8.479e-05 5.091l5.091 0.0001272z" fill="#ffffff" stroke="#ffffff"/>
<path d="M175.3 380.7l-5.091 -4.239e-05l-8.479e-05 5.091l5.091 0.0001272l8.479e-05 -5.091l-5.091 -4.239e-05" fill="none"/>
<path d="M182.5 372l-5.091 -4.239e-05l-8.479e-05 5.091l5.091 0.0001272z" fill="#ffffff" stroke="#ffffff"/>
<path d="M182.5 372l-5.091 -4.239e-05l-8.479e-05 5.091l5.091 0.0001272l8.479e-05 -5.091l-5.091 -4.239e-05" fill="none"/>
<path d="M189.7 376l-5.091 -4.239e-05l-8.479e-05 5.091l5.091 0.0001272z" fill="#ffffff" stroke="#ffffff"/>
<path d="M189.7 376l-5.091 -4.239e-05l-8.479e-05 5.091l5.091 0.0001272l8.479e-05 -5.091l-5.091 -4.239e-05" fill="none"/>
<path d="M196.9 374.3l-5.091 -4.239e-05l-8.479e-05 5.091l5.091 0.0001272z" fill="#ffffff" stroke="#ffffff"/>
<path d="M196.9 374.3l-5.091 -4.239e-05l-8.479e-05 5.091l5.091 0.0001272l8.479e-05 -5.091l-5.091 -4.239e-05" fill="none"/>
<path d="M204.1 342.8l-5.091 -4.239e-05l-8.479e-05 5.091l5.091 0.0001272z" fill="#ffffff" stroke="#ffffff"/>
<path d="M204.1 342.8l-5.091 -4.239e-05l-8.479e-05 5.091l5.091 0.0001272l8.479e-05 -5.091l-5.091 -4.239e-05" fill="none"/>
<path d="M211.3 367.2l-5.091 -4.239e-05l-8.479e-05 5.091l5.091 0.0001272z" fill="#ffffff" stroke="#ffffff"/>
<path d="M211.3 367.2l-5.091 -4.239e-05l-8.479e-05 5.091l5.091 0.0001272l8.479e-05 -5.091l-5.091 -4.239e-05" fill="none"/>
<path d="M218.5 335.1l-5.091 -4.239e-05l-8.479e-05 5.091l5.091 0.0001272z" fill="#ffffff" stroke="#ffffff"/>
<path d="M218.5 335.1l-5.091 -4.239e-05l-8.479e-05 5.091l5.091 0.0001272l8.479e-05 -5.091l-5.091 -4.239e-05" fill="none"/>
<path d="M225.7 323.4l-5.091 -4.239e-05l-8.479e-05 5.091l5.091 0.0001272z" fill="#ffffff" stroke="#ffffff"/>
<path d="M225.7 323.4l-5.091 -4.239e-05l-8.479e-05 5.091l5.091 0.0001272l8.479e-05 -5.091l-5.091 -4.239e-05" fill="none"/>
<path d="M232.9 356.5l-5.091 -4.239e-05l-8.479e-05 5.091l5.091 0.0001272z" fill="#ffffff" stroke="#ffffff"/>
<path d="M232.9 356.5l-5.091 -4.239e-05l-8.479e-05 5.091l5.091 0.0001272l8.479e-05 -5.091l-5.091 -4.239e-05" fill="none"/>
<path d="M240.1 321.3l-5.091 -4.239e-05l-8.479e-05 5.091l5.091 0.0001272z" fill="#ffffff" stroke="#ffffff"/>
<path d="M240.1 321.3l-5.091 -4.239e-05l-8.479e-05 5.091l5.091 0.0001272l8.479e-05 -5.091l-5.091 -4.239e-05" fill="none"/>
<path d="M247.3 323.8l-5.091 -4.239e-05l-8.479e-05 5.091l5.091 0.0001272z" fill="#ffffff" stroke="#ffffff"/>
<path d="M247.3 323.8l-5.091 -4.239e-05l-8.479e-05 5.091l5.091 0.0001272l8.479e-05 -5.091l-5.091 -4.239e-05" fill="none"/>
<path d="M254.5 345.2l-5.091 -4.239e-05l-8.479e-05 5.091l5.091 0.0001272z" fill="#ffffff" stroke="#ffffff"/>
<path d="M254.5 345.2l-5.091 -4.239e-05l-8.479e-05 5.091l5.091 0.0001272l8.479e-05 -5.091l-5.091 -4.239e-05" fill="none"/>
<path d="M261.7 313.8l-5.091 -4.239e-05l-8.479e-05 5.091l5.091 0.0001272z" fill="#ffffff" stroke="#ffffff"/>
<path d="M261.7 313.8l-5.091 -4.239e-05l-8.479e-05 5.091l5.091 0.0001272l8.479e-05 -5.091l-5.091 -4.239e-05" fill="none"/>
<path d="M268.9 309.1l-5.091 -4.239e-05l-8.479e-05 5.091l5.091 0.0001272z" fill="#ffffff" stroke="#ffffff"/>
<path d="M268.9 309.1l-5.091 -4.239e-05l-8.479e-05 5.091l5.091 0.0001272l8.479e-05 -5.091l-5.091 -4.239e-05" fill="none"/>
<path d="M276.1 318.6l-5.091 -4.239e-05l-8.479e-05 5.091l5.091 0.0001272z" fill="#ffffff" stroke="#ffffff"/>
<path d="M276.1 318.6l-5.091 -4.239e-05l-8.479e-05 5.091l5.091 0.0001272l8.479e-05 -5.091l-5.091 -4.239e-05" fill="none"/>
<path d="M283.3 302.1l-5.091 -4.239e-05l-8.479e-05 5.091l5.091 0.0001272z" fill="#ffffff" stroke="#ffffff"/>
<path d="M283.3 302.1l-5.091 -4.239e-05l-8.479e-05 5.091l5.091 0.0001272l8.479e-05 -5.091l-5.091 -4.239e-05" fill="none"/>
<path d="M290.5 313.8l-5.091 -4.239e-05l-8.479e-05 5.091l5.091 0.0001272z" fill="#ffffff" stroke="#ffffff"/>
<path d="M290.5 313.8l-5.091 -4.239e-05l-8.479e-05 5.091l5.091 0.0001272l8.479e-05 -5.091l-5.091 -4.239e-05" fill="none"/>
<path d="M297.7 315.2l-5.091 -4.239e-05l-8.479e-05 5.091l5.091 0.0001272z" fill="#ffffff" stroke="#ffffff"/>
<path d="M297.7 315.2l-5.091 -4.239e-05l-8.479e-05 5.091l5.091 0.0001272l8.479e-05 -5.091l-5.091 -4.239e-05" fill="none"/>
<path d="M304.9 309.3l-5.091 -4.239e-05l-8.479e-05 5.091l5.091 0.0001272z" fill="#ffffff" stroke="#ffffff"/>
<path d="M304.9 309.3l-5.091 -4.239e-05l-8.479e-05 5.091l5.091 0.0001272l8.479e-05 -5.091l-5.091 -4.239e-05" fill="none"/>
<path d="M312.1 318.9l-5.091 -4.239e-05l-8.479e-05 5.091l5.091 0.0001272z" fill="#ffffff" stroke="#ffffff"/>
<path d="M312.1 318.9l-5.091 -4.239e-05l-8.479e-05 5.091l5.091 0.0001272l8.479e-05 -5.091l-5.091 -4.239e-05" fill="none"/>
<path d="M319.3 310.6l-5.091 -4.239e-05l-8.479e-05 5.091l5.091 0.0001272z" fill="#ffffff" stroke="#ffffff"/>
<path d="M319.3 310.6l-5.091 -4.239e-05l-8.479e-05 5.091l5.091 0.0001272l8.479e-05 -5.091l-5.091 -4.239e-05" fill="none"/>
<path d="M326.5 318.6l-5.091 -4.239e-05l-8.479e-05 5.091l5.091 0.0001272z" fill="#ffffff" stroke="#ffffff"/>
<path d="M326.5 318.6l-5.091 -4.239e-05l-8.479e-05 5.091l5.091 0.0001272l8.479e-05 -5.091l-5.091 -4.239e-05" fill="none"/>
<path d="M333.7 303.8l-5.091 -4.239e-05l-8.479e-05 5.091l5.091 0.0001272z" fill="#ffffff" stroke="#ffffff"/>
<path d="M333.7 303.8l-5.091 -4.239e-05l-8.479e-05 5.091l5.091 0.0001272l8.479e-05 -5.091l-5.091 -4.239e-05" fill="none"/>
<path d="M340.9 305.2l-5.091 -4.239e-05l-8.479e-05 5.091l5.091 0.0001272z" fill="#ffffff" stroke="#ffffff"/>
<path d="M340.9 305.2l-5.091 -4.239e-05l-8.479e-05 5.091l5.091 0.0001272l8.479e-05 -5.091l-5.091 -4.239e-05" fill="none"/>
<path d="M348.1 309.8l-5.091 -4.239e-05l-8.479e-05 5.091l5.091 0.0001272z" fill="#ffffff" stroke="#ffffff"/>
<path d="M348.1 309.8l-5.091 -4.239e-05l-8.479e-05 5.091l5.091 0.0001272l8.479e-05 -5.091l-5.091 -4.239e-05" fill="none"/>
<path d="M355.3 309.5l-5.091 -4.239e-05l-8.479e-05 5.091l5.091 0.0001272z" fill="#ffffff" stroke="#ffffff"/>
<path d="M355.3 309.5l-5.091 -4.239e-05l-8.479e-05 5.091l5.091 0.0001272l8.479e-05 -5.091l-5.091 -4.239e-05" fill="none"/>
<path d="M362.5 303.9l-5.091 -4.239e-05l-8.479e-05 5.091l5.091 0.0001272z" fill="#ffffff" stroke="#ffffff"/>
<path d="M362.5 303.9l-5.091 -4.239e-05l-8.479e-05 5.091l5.091 0.0001272l8.479e-05 -5.091l-5.091 -4.239e-05" fill="none"/>
</g></g>
</g>
</svg>
